<?xml version="1.0" standalone="no"?>
<!DOCTYPE svg PUBLIC "-//W3C//DTD SVG 20010904//EN"
 "http://www.w3.org/TR/2001/REC-SVG-20010904/DTD/svg10.dtd">
<svg version="1.0" xmlns="http://www.w3.org/2000/svg"
 width="3112.000000pt" height="3112.000000pt" viewBox="0 0 3112.000000 3112.000000"
 preserveAspectRatio="xMidYMid meet">

<g transform="translate(0.000000,3112.000000) scale(0.100000,-0.100000)"
fill="#000000" stroke="none">
<path d="M24020 31105 c0 -8 -9 -19 -20 -25 -11 -6 -20 -17 -20 -24 0 -7 -18
-25 -40 -40 -22 -14 -40 -32 -40 -40 0 -8 -12 -22 -27 -32 -38 -24 -113 -100
-113 -113 0 -6 -4 -11 -9 -11 -15 0 -71 -53 -71 -67 0 -7 -4 -13 -9 -13 -15 0
-71 -53 -71 -67 0 -7 -7 -13 -15 -13 -9 0 -18 -7 -21 -15 -4 -8 -12 -15 -20
-15 -8 0 -14 -9 -14 -21 0 -12 -8 -23 -19 -26 -11 -3 -32 -23 -47 -44 -15 -21
-33 -39 -40 -39 -7 0 -18 -9 -24 -20 -6 -11 -20 -20 -30 -20 -13 0 -20 -7 -20
-20 0 -11 -7 -20 -15 -20 -8 0 -15 -9 -15 -20 0 -13 -7 -20 -18 -20 -10 0 -25
-12 -33 -27 -19 -37 -34 -53 -52 -53 -7 0 -20 -12 -28 -27 -19 -38 -35 -53
-53 -53 -9 0 -22 -13 -31 -30 -9 -16 -22 -30 -30 -30 -8 0 -15 -6 -15 -13 0
-16 -52 -67 -68 -67 -7 0 -12 -6 -12 -13 0 -16 -52 -67 -68 -67 -7 0 -12 -6
-12 -13 0 -16 -52 -67 -68 -67 -7 0 -12 -6 -12 -13 0 -16 -231 -247 -248 -247
-6 0 -12 -6 -12 -13 0 -16 -52 -67 -68 -67 -7 0 -12 -6 -12 -13 0 -16 -51 -67
-67 -67 -6 0 -13 -9 -16 -21 -3 -11 -15 -23 -26 -26 -11 -3 -18 -10 -15 -15 3
-5 -3 -12 -15 -15 -12 -3 -21 -13 -21 -22 0 -9 -13 -22 -29 -29 -17 -8 -31
-22 -33 -35 -2 -12 -18 -29 -40 -41 -21 -11 -38 -28 -40 -40 -2 -11 -19 -28
-40 -40 -21 -11 -38 -25 -38 -32 0 -7 -9 -18 -20 -24 -11 -6 -20 -17 -20 -24
0 -7 -18 -25 -40 -40 -22 -14 -40 -33 -40 -40 0 -8 -16 -24 -36 -36 -19 -13
-40 -33 -44 -46 -6 -14 -18 -24 -29 -24 -12 0 -21 -9 -25 -25 -4 -14 -10 -25
-15 -25 -15 0 -71 -53 -71 -67 0 -7 -4 -13 -9 -13 -15 0 -71 -53 -71 -67 0 -7
-7 -13 -15 -13 -9 0 -18 -7 -21 -15 -4 -8 -12 -15 -20 -15 -8 0 -14 -9 -14
-21 0 -12 -8 -23 -19 -26 -11 -3 -32 -23 -47 -44 -15 -21 -32 -39 -39 -39 -7
0 -25 -18 -40 -40 -15 -22 -32 -40 -38 -40 -12 0 -87 -72 -87 -83 0 -13 -27
-37 -43 -37 -7 0 -20 -12 -28 -27 -19 -37 -35 -53 -52 -53 -9 0 -21 -13 -29
-30 -7 -16 -20 -30 -29 -30 -9 0 -19 -9 -22 -21 -3 -12 -10 -18 -15 -15 -5 3
-12 -4 -15 -15 -3 -11 -15 -23 -26 -26 -12 -3 -21 -11 -21 -17 0 -16 -52 -66
-68 -66 -7 0 -12 -6 -12 -13 0 -16 -52 -67 -68 -67 -7 0 -12 -6 -12 -13 0 -16
-231 -247 -248 -247 -6 0 -12 -6 -12 -13 0 -16 -52 -67 -68 -67 -7 0 -12 -6
-12 -13 0 -16 -51 -67 -67 -67 -6 0 -13 -9 -16 -21 -3 -11 -15 -23 -26 -26
-11 -3 -18 -10 -15 -15 3 -5 -3 -12 -15 -15 -12 -3 -21 -13 -21 -22 0 -9 -13
-22 -29 -29 -17 -8 -31 -22 -33 -35 -2 -12 -18 -29 -40 -41 -21 -11 -38 -28
-40 -40 -2 -11 -14 -26 -26 -32 -30 -15 -91 -75 -92 -90 0 -6 -18 -23 -40 -38
-22 -14 -40 -33 -40 -40 0 -8 -16 -24 -36 -36 -19 -13 -40 -33 -44 -46 -6 -14
-18 -24 -30 -24 -11 0 -20 -6 -20 -14 0 -8 -7 -16 -15 -20 -8 -3 -15 -11 -15
-18 0 -7 -14 -21 -30 -30 -17 -9 -30 -24 -30 -33 0 -8 -4 -15 -9 -15 -15 0
-71 -53 -71 -67 0 -7 -5 -13 -10 -13 -13 0 -112 -98 -135 -134 -10 -14 -23
-26 -30 -26 -7 0 -25 -18 -40 -40 -15 -22 -34 -40 -41 -40 -7 0 -18 -9 -24
-20 -6 -11 -20 -20 -30 -20 -13 0 -20 -7 -20 -20 0 -11 -7 -20 -15 -20 -8 0
-15 -9 -15 -20 0 -13 -7 -20 -18 -20 -10 0 -25 -12 -33 -27 -19 -37 -34 -53
-52 -53 -7 0 -20 -12 -28 -27 -19 -38 -35 -53 -54 -53 -8 0 -20 -12 -25 -26
-6 -14 -19 -28 -30 -31 -11 -3 -20 -11 -20 -18 0 -8 -18 -29 -40 -48 -22 -19
-40 -37 -40 -40 0 -12 28 -7 33 6 4 10 6 10 6 0 1 -10 35 -13 137 -13 128 0
136 -1 141 -20 4 -16 9 -18 19 -9 10 8 12 6 9 -10 -2 -12 1 -20 8 -18 6 1 11
-5 12 -13 1 -8 6 -14 13 -12 7 1 15 -5 18 -13 3 -8 10 -12 15 -9 5 3 9 1 9 -4
0 -5 66 -13 146 -17 203 -10 233 -21 236 -88 1 -18 6 -34 12 -34 136 -5 293
-17 301 -23 6 -4 17 -6 26 -5 9 2 24 -11 35 -29 19 -32 21 -36 23 -60 1 -9 28
-15 104 -20 115 -8 121 -8 160 -24 16 -7 32 -12 36 -12 15 0 52 -48 54 -69 1
-19 7 -21 57 -22 65 0 139 -8 160 -16 8 -4 17 -7 20 -7 24 -6 49 -30 52 -48 2
-13 10 -23 18 -23 8 0 15 -7 15 -15 0 -11 25 -17 115 -26 138 -14 179 -31 201
-83 16 -37 18 -38 80 -45 128 -13 146 -21 176 -81 20 -38 30 -45 73 -45 100
-1 195 -45 202 -94 3 -23 33 -33 109 -35 25 0 49 -4 53 -8 4 -5 11 -8 14 -9
28 -3 63 -32 76 -64 14 -36 17 -37 87 -49 76 -12 142 -38 134 -51 -3 -4 2 -11
11 -14 8 -3 13 -10 10 -15 -9 -13 43 -51 69 -51 30 0 85 -20 85 -31 0 -5 11
-15 25 -21 14 -6 25 -17 25 -24 0 -21 39 -42 99 -55 50 -11 119 -54 106 -67
-11 -12 18 -41 47 -47 143 -27 168 -40 196 -93 16 -31 26 -37 70 -48 40 -9 62
-21 92 -53 22 -23 40 -46 40 -51 0 -6 7 -10 16 -10 8 0 25 -6 37 -12 12 -7 38
-17 57 -23 24 -7 40 -21 52 -44 23 -46 32 -54 86 -72 39 -12 51 -22 70 -59 20
-39 28 -46 70 -56 54 -12 138 -66 147 -93 3 -10 24 -26 48 -36 75 -31 92 -42
108 -74 25 -47 39 -61 64 -61 30 0 81 -51 88 -88 5 -25 12 -30 46 -36 43 -7
79 -42 88 -87 4 -22 12 -28 46 -33 29 -5 51 -17 76 -45 20 -20 72 -67 116
-104 44 -37 96 -82 115 -102 19 -19 39 -35 45 -35 14 0 64 -51 79 -82 6 -12
31 -35 54 -51 24 -16 53 -45 66 -66 13 -20 43 -54 67 -77 24 -22 100 -100 169
-173 69 -73 139 -148 155 -165 128 -136 155 -169 166 -204 8 -30 19 -41 43
-50 32 -12 68 -60 73 -97 2 -11 12 -27 24 -35 60 -44 88 -74 94 -100 4 -16 27
-49 51 -72 25 -24 62 -70 84 -103 21 -33 52 -73 70 -90 34 -32 70 -94 70 -119
0 -9 18 -27 39 -40 32 -20 44 -38 66 -96 17 -45 45 -91 74 -125 34 -39 52 -71
64 -114 14 -49 23 -63 47 -76 32 -16 68 -78 91 -153 8 -29 25 -53 49 -72 21
-16 42 -42 48 -57 43 -117 59 -150 79 -166 32 -26 42 -46 70 -151 18 -70 31
-99 57 -126 42 -44 48 -56 76 -163 19 -71 28 -92 52 -108 36 -26 55 -71 73
-173 16 -96 22 -113 48 -139 33 -33 56 -100 76 -220 21 -122 29 -146 66 -187
28 -31 40 -70 60 -190 27 -162 34 -189 54 -185 48 9 46 106 49 -1759 l2 -1745
-31 -3 c-36 -3 -37 -4 -78 -223 -17 -88 -28 -120 -55 -160 -36 -53 -50 -93
-60 -165 -13 -91 -39 -176 -68 -219 -38 -56 -46 -78 -63 -166 -7 -38 -19 -83
-26 -100 -7 -16 -12 -33 -11 -36 1 -4 -14 -21 -33 -38 -19 -17 -37 -44 -41
-59 -19 -87 -57 -181 -84 -207 -32 -30 -39 -47 -71 -154 -14 -49 -33 -87 -54
-110 -19 -21 -44 -69 -61 -116 -20 -58 -38 -90 -66 -117 -23 -22 -48 -63 -64
-103 -16 -39 -44 -85 -70 -113 -24 -25 -48 -59 -54 -74 -5 -15 -15 -42 -21
-58 -6 -17 -26 -43 -43 -58 -19 -16 -46 -60 -66 -107 -21 -47 -50 -94 -72
-115 -20 -20 -48 -61 -61 -92 -14 -32 -38 -64 -56 -77 -17 -13 -40 -39 -51
-59 -10 -21 -44 -66 -75 -101 -31 -35 -70 -88 -86 -117 -17 -29 -46 -64 -65
-79 -19 -15 -44 -47 -56 -71 -11 -25 -36 -56 -56 -69 -19 -13 -47 -46 -61 -72
-14 -26 -42 -58 -61 -71 -19 -13 -41 -35 -48 -50 -8 -15 -39 -53 -70 -84 -32
-31 -116 -119 -188 -195 -287 -301 -401 -415 -444 -443 -25 -16 -56 -43 -69
-60 -12 -18 -43 -44 -68 -60 -25 -16 -61 -47 -80 -70 -19 -22 -50 -47 -68 -55
-19 -7 -46 -32 -61 -55 -15 -23 -44 -50 -64 -60 -20 -10 -53 -39 -74 -65 -21
-25 -54 -54 -74 -64 -21 -11 -55 -39 -77 -63 -23 -24 -71 -58 -110 -77 -39
-19 -85 -51 -103 -72 -18 -21 -43 -41 -55 -45 -53 -15 -89 -39 -103 -65 -8
-17 -35 -39 -63 -54 -27 -13 -77 -49 -112 -80 -37 -32 -85 -63 -113 -73 -31
-11 -58 -29 -74 -50 -15 -20 -58 -50 -101 -72 -42 -22 -89 -53 -105 -70 -20
-20 -53 -38 -99 -52 -50 -15 -78 -30 -105 -58 -41 -42 -71 -59 -150 -85 -34
-11 -65 -30 -87 -53 -20 -21 -60 -48 -95 -62 -33 -14 -84 -44 -113 -68 -29
-23 -68 -47 -87 -53 -72 -22 -116 -44 -148 -76 -21 -21 -52 -38 -90 -48 -97
-27 -146 -47 -172 -69 -41 -36 -70 -51 -160 -80 -57 -18 -97 -38 -119 -58 -23
-21 -69 -44 -144 -70 -61 -21 -115 -45 -120 -53 -12 -23 -75 -51 -142 -65
-140 -28 -159 -34 -189 -60 -48 -42 -82 -56 -200 -80 -84 -18 -116 -30 -140
-50 -48 -42 -85 -57 -180 -75 -95 -18 -146 -36 -165 -58 -21 -27 -105 -55
-196 -66 -123 -16 -198 -37 -242 -66 -44 -31 -111 -50 -218 -65 -125 -17 -175
-31 -219 -60 -59 -39 -127 -59 -245 -70 -148 -14 -272 -39 -303 -61 -38 -28
-159 -56 -269 -64 -158 -11 -339 -44 -384 -70 -69 -41 -122 -48 -495 -70 -140
-8 -271 -17 -290 -20 -19 -3 -48 -8 -65 -10 -16 -3 -33 -5 -38 -5 -4 1 -20 -6
-35 -13 -134 -70 -368 -81 -1747 -82 -803 0 -1015 3 -1115 16 -36 4 -102 12
-146 18 -45 6 -106 21 -136 34 -71 32 -71 32 -533 57 -181 10 -322 38 -402 80
-42 22 -134 32 -204 23 -32 -4 -39 -11 -59 -54 -18 -36 -33 -53 -61 -66 -27
-13 -43 -30 -58 -63 -14 -32 -35 -55 -65 -74 -25 -15 -49 -40 -54 -55 -11 -28
-40 -60 -91 -101 -17 -14 -31 -30 -31 -36 0 -6 -18 -28 -40 -50 -22 -21 -40
-41 -40 -44 0 -6 -132 -140 -190 -193 -14 -13 -42 -34 -63 -48 -20 -13 -48
-40 -61 -59 -13 -20 -42 -44 -65 -54 -27 -13 -49 -33 -66 -61 -21 -37 -73 -75
-102 -75 -5 0 -14 -15 -21 -34 -16 -43 -56 -83 -92 -91 -18 -4 -30 -14 -34
-29 -8 -34 -50 -71 -96 -85 -29 -9 -44 -20 -51 -39 -15 -39 -39 -62 -85 -82
-25 -11 -50 -32 -63 -53 -12 -20 -45 -49 -74 -65 -29 -17 -74 -51 -100 -76
-48 -46 -113 -86 -141 -86 -8 0 -25 -19 -38 -42 -15 -27 -37 -48 -63 -60 -22
-11 -47 -23 -55 -27 -8 -4 -21 -21 -30 -37 -10 -19 -37 -40 -77 -59 -33 -16
-82 -49 -108 -73 -46 -44 -115 -81 -147 -82 -10 0 -29 -18 -43 -40 -14 -23
-38 -46 -53 -51 -74 -30 -122 -55 -122 -66 0 -17 -99 -80 -140 -88 -46 -10
-70 -23 -70 -38 0 -26 -51 -66 -117 -91 -42 -17 -83 -41 -107 -65 -25 -26 -55
-43 -85 -51 -25 -7 -55 -14 -65 -17 -10 -3 -37 -22 -60 -43 -49 -45 -115 -80
-152 -80 -34 0 -79 -27 -95 -57 -15 -27 -72 -56 -154 -78 -44 -11 -66 -23 -84
-46 -28 -36 -132 -89 -174 -89 -19 0 -40 -12 -65 -36 -44 -43 -101 -70 -169
-79 -75 -10 -110 -24 -127 -50 -21 -32 -64 -52 -181 -81 -77 -20 -105 -32
-127 -54 -40 -43 -74 -57 -176 -75 -114 -19 -114 -19 -133 -53 -22 -38 -72
-60 -178 -77 -98 -16 -141 -30 -141 -44 0 -17 -104 -60 -175 -72 -183 -29
-219 -39 -250 -67 -40 -37 -106 -58 -250 -78 -98 -13 -125 -20 -145 -39 -20
-19 -80 -52 -110 -60 -44 -13 -74 -18 -180 -30 -87 -10 -128 -19 -136 -29 -6
-9 -15 -12 -20 -8 -4 4 -2 -1 5 -11 9 -11 11 -21 5 -27 -12 -12 -892 -26 -986
-16 l-68 8 0 39 c0 65 24 108 70 127 33 14 42 24 51 55 16 59 31 87 46 87 8 0
12 4 9 8 -3 5 11 24 30 43 32 31 69 85 62 91 -8 8 46 68 74 81 25 12 38 29 53
68 18 45 27 56 68 76 36 18 47 29 47 47 0 41 29 95 78 144 33 33 55 67 71 110
16 46 30 66 50 77 16 8 31 12 34 9 3 -3 15 26 27 66 17 58 31 81 68 118 25 26
55 69 67 97 28 69 35 78 76 103 30 18 38 30 43 64 9 57 54 135 88 156 19 11
32 30 39 57 26 93 32 107 57 123 42 27 60 53 72 106 16 76 37 111 80 135 22
12 40 28 41 34 4 56 38 148 66 180 9 9 24 17 34 17 20 0 35 39 43 112 7 66 34
117 72 140 37 22 43 33 54 108 12 81 36 128 75 151 34 20 55 64 55 115 0 51
32 115 71 141 39 26 42 33 54 128 10 76 38 132 79 156 31 18 36 26 36 59 0 87
49 238 72 224 7 -4 8 -3 4 4 -4 7 3 16 17 23 26 12 30 26 57 197 10 58 19 81
42 108 17 19 36 34 44 34 8 0 14 4 14 9 0 5 4 43 10 83 5 40 11 89 14 108 2
19 5 35 6 35 1 0 3 11 6 24 2 14 9 30 15 38 6 7 8 13 3 13 -4 0 1 7 11 15 71
54 65 38 80 195 8 85 25 160 36 160 5 0 8 3 7 8 -4 14 23 52 37 52 23 0 33 31
40 121 14 197 40 282 91 295 25 6 32 39 40 176 13 244 21 281 75 325 l40 32
-43 12 c-24 7 -47 12 -51 11 -5 -2 -6 2 -2 8 3 5 2 10 -3 10 -5 0 -22 20 -38
45 -15 25 -34 46 -41 46 -15 2 -31 5 -38 9 -3 1 -9 3 -14 4 -5 0 -13 4 -17 8
-4 5 -15 8 -25 8 -21 0 -81 48 -74 59 9 16 -37 51 -76 57 -36 6 -87 47 -90 75
-1 5 -2 15 -3 21 0 7 -22 16 -47 19 -25 4 -60 14 -77 23 -18 9 -35 17 -39 17
-18 3 -41 26 -57 56 -13 25 -26 35 -60 44 -49 12 -79 39 -93 84 -7 23 -16 31
-39 33 -61 6 -84 22 -95 68 -13 50 -14 51 -60 59 -33 6 -104 66 -92 79 3 3 -4
4 -15 1 -12 -2 -21 -1 -20 3 3 15 -15 42 -28 42 -7 0 -25 11 -40 25 -15 14
-31 25 -35 25 -5 0 -31 23 -58 50 -27 28 -58 50 -69 50 -28 0 -69 35 -77 67
-9 38 -23 53 -51 53 -12 0 -26 5 -29 10 -4 6 -10 8 -15 5 -16 -10 -46 47 -49
91 -1 7 -18 15 -38 19 -58 10 -80 29 -88 75 -7 43 -11 46 -60 54 -36 6 -73 49
-77 90 -3 25 -9 31 -49 42 -46 14 -56 26 -75 89 -8 25 -16 31 -53 37 -50 8
-73 24 -69 47 5 37 -12 71 -40 77 -64 15 -80 27 -92 72 -13 52 -28 69 -57 68
-12 -1 -22 3 -22 9 0 5 -8 12 -17 15 -11 4 -19 18 -20 35 0 16 -6 31 -13 33
-6 2 -11 13 -11 25 0 16 -3 18 -9 9 -12 -19 -16 -19 -39 1 -15 14 -22 15 -28
6 -5 -8 -3 -10 6 -4 9 5 11 4 6 -4 -11 -18 -25 -3 -21 21 4 17 2 19 -7 10 -7
-7 -16 -12 -20 -12 -9 0 -6 29 5 47 4 6 3 14 -2 17 -5 3 -12 26 -15 51 -4 25
-11 45 -17 45 -5 0 -9 -4 -9 -10 0 -5 -11 -12 -24 -16 -13 -3 -28 -16 -35 -30
-6 -13 -17 -24 -26 -24 -8 0 -15 -6 -15 -13 0 -16 -52 -67 -68 -67 -7 0 -12
-6 -12 -13 0 -16 -52 -67 -68 -67 -7 0 -12 -6 -12 -13 0 -16 -52 -67 -68 -67
-7 0 -12 -6 -12 -13 0 -16 -231 -247 -248 -247 -6 0 -12 -6 -12 -13 0 -16 -51
-67 -67 -67 -7 0 -13 -10 -15 -22 -5 -34 -28 -34 -28 0 0 17 -6 33 -12 36 -10
5 -11 7 0 12 16 7 16 31 0 37 -9 4 -10 8 -2 14 6 4 14 25 18 46 6 30 4 37 -8
37 -11 0 -18 -13 -22 -40 -6 -36 -9 -39 -30 -34 -23 6 -24 4 -24 -40 0 -25 -4
-46 -10 -46 -5 0 -10 -7 -10 -15 0 -8 -7 -15 -15 -15 -9 0 -15 -9 -15 -25 0
-14 -4 -25 -10 -25 -6 0 -10 -28 -10 -65 0 -53 -3 -63 -15 -59 -12 5 -15 27
-14 117 0 71 -3 113 -10 115 -6 2 -11 17 -11 34 0 23 -4 29 -17 26 -16 -3 -18
-14 -14 -93 2 -50 7 -91 12 -93 15 -6 10 -88 -6 -102 -13 -11 -15 -3 -15 59 0
41 -4 71 -10 71 -5 0 -11 28 -11 63 -1 34 -3 54 -6 45 -2 -10 -15 -21 -29 -24
-18 -5 -24 -13 -24 -35 0 -16 5 -29 11 -29 28 0 39 -30 39 -104 0 -74 -1 -76
-25 -76 -20 0 -25 -5 -25 -25 0 -18 -5 -25 -20 -25 -18 0 -20 -7 -20 -72 0
-39 -3 -68 -6 -65 -12 12 -4 151 9 159 9 6 9 8 0 8 -10 0 -13 25 -13 91 0 68
-3 90 -12 87 -10 -4 -14 -57 -16 -212 -1 -132 -6 -205 -12 -201 -6 3 -10 19
-10 36 0 16 -5 29 -11 29 -7 0 -9 48 -7 145 2 80 0 145 -4 145 -5 0 -8 -56 -8
-125 0 -161 -18 -167 -23 -7 -2 64 -2 29 0 -79 l4 -196 -28 -18 c-38 -25 -113
-101 -113 -114 0 -6 -4 -11 -9 -11 -15 0 -71 -53 -71 -67 0 -7 -4 -13 -9 -13
-15 0 -71 -53 -71 -67 0 -7 -7 -13 -15 -13 -9 0 -18 -7 -21 -15 -4 -8 -12 -15
-20 -15 -8 0 -14 -9 -14 -21 0 -12 -8 -23 -19 -26 -11 -3 -32 -23 -47 -44 -15
-21 -32 -39 -39 -39 -7 0 -25 -18 -40 -40 -15 -22 -32 -40 -38 -40 -12 0 -87
-72 -87 -83 0 -13 -27 -37 -43 -37 -7 0 -20 -12 -28 -27 -19 -37 -35 -53 -52
-53 -9 0 -21 -14 -29 -30 -7 -16 -20 -30 -29 -30 -9 0 -19 -9 -22 -21 -3 -12
-10 -18 -15 -15 -5 3 -12 -4 -15 -15 -3 -11 -15 -23 -26 -26 -12 -3 -21 -11
-21 -17 0 -16 -52 -66 -68 -66 -7 0 -12 -6 -12 -13 0 -16 -52 -67 -68 -67 -7
0 -12 -6 -12 -13 0 -16 -231 -247 -248 -247 -6 0 -12 -6 -12 -13 0 -16 -52
-67 -68 -67 -7 0 -12 -6 -12 -13 0 -16 -51 -67 -67 -67 -6 0 -13 -9 -16 -21
-3 -11 -15 -23 -26 -26 -11 -3 -18 -10 -15 -15 3 -5 -3 -12 -15 -15 -12 -3
-21 -13 -21 -22 0 -9 -13 -22 -29 -29 -17 -8 -31 -22 -33 -35 -2 -12 -18 -29
-40 -41 -21 -11 -38 -28 -40 -40 -2 -11 -14 -26 -26 -32 -30 -15 -91 -75 -92
-90 0 -6 -18 -23 -40 -38 -22 -14 -40 -33 -40 -40 0 -8 -16 -24 -36 -36 -19
-13 -40 -33 -44 -46 -6 -14 -18 -24 -30 -24 -11 0 -20 -6 -20 -14 0 -8 -7 -16
-15 -20 -8 -3 -15 -11 -15 -18 0 -7 -14 -21 -30 -30 -17 -9 -30 -24 -30 -33 0
-8 -4 -15 -9 -15 -15 0 -71 -53 -71 -67 0 -7 -7 -13 -15 -13 -9 0 -18 -7 -21
-15 -4 -8 -12 -15 -20 -15 -8 0 -14 -9 -14 -21 0 -12 -8 -23 -19 -26 -11 -3
-32 -23 -47 -44 -15 -21 -32 -39 -39 -39 -7 0 -25 -18 -40 -40 -15 -22 -32
-40 -38 -40 -12 0 -87 -72 -87 -83 0 -13 -27 -37 -43 -37 -7 0 -20 -12 -28
-27 -19 -37 -35 -53 -52 -53 -9 0 -21 -13 -29 -30 -7 -16 -20 -30 -29 -30 -9
0 -19 -9 -22 -21 -3 -12 -10 -18 -15 -15 -5 3 -12 -4 -15 -15 -3 -11 -15 -23
-26 -26 -12 -3 -21 -11 -21 -17 0 -16 -52 -66 -68 -66 -7 0 -12 -6 -12 -13 0
-16 -52 -67 -68 -67 -7 0 -12 -6 -12 -13 0 -16 -231 -247 -248 -247 -6 0 -12
-6 -12 -13 0 -16 -52 -67 -68 -67 -7 0 -12 -6 -12 -13 0 -16 -52 -67 -68 -67
-7 0 -12 -6 -12 -13 0 -16 -52 -67 -68 -67 -7 0 -12 -6 -12 -13 0 -7 -13 -20
-29 -30 -16 -10 -31 -27 -33 -39 -2 -14 -18 -30 -40 -42 -21 -11 -38 -28 -40
-40 -2 -11 -19 -28 -40 -40 -22 -11 -38 -28 -40 -40 -2 -14 -9 -20 -20 -18
-11 2 -18 -3 -18 -13 0 -8 -7 -15 -15 -15 -9 0 -20 -11 -24 -24 -5 -13 -17
-26 -25 -29 -9 -4 -16 -13 -16 -21 0 -8 -16 -24 -36 -36 -19 -13 -40 -33 -44
-46 -6 -14 -18 -24 -30 -24 -11 0 -20 -6 -20 -14 0 -8 -7 -16 -15 -20 -8 -3
-15 -11 -15 -18 0 -7 -14 -21 -30 -30 -17 -9 -30 -24 -30 -33 0 -8 -4 -15 -9
-15 -15 0 -71 -53 -71 -67 0 -7 -5 -13 -10 -13 -13 0 -112 -98 -135 -134 -10
-14 -23 -26 -30 -26 -7 0 -25 -18 -40 -40 -15 -22 -34 -40 -41 -40 -7 0 -18
-9 -24 -20 -6 -11 -17 -20 -25 -20 -13 0 -15 -439 -15 -3550 l0 -3550 15560 0
15560 0 0 15560 0 15560 -3550 0 c-3111 0 -3550 -2 -3550 -15z m-19282 -19202
l-2 -88 -5 80 c-3 44 -5 83 -3 88 9 21 12 -2 10 -80z m-38 -98 c0 -24 -5 -35
-15 -35 -10 0 -15 10 -15 29 0 25 6 33 28 40 1 1 2 -15 2 -34z m-213 -232 c-3
-10 -5 -4 -5 12 0 17 2 24 5 18 2 -7 2 -21 0 -30z"/>
<path d="M18530 26313 c0 -6 8 -17 18 -24 16 -13 16 -13 2 6 -8 11 -16 22 -17
24 -2 2 -3 0 -3 -6z"/>
<path d="M20575 18724 c-11 -3 -46 -9 -78 -16 -32 -6 -60 -15 -63 -20 -12 -19
-88 -49 -190 -74 -97 -25 -111 -31 -151 -71 -24 -23 -50 -43 -57 -43 -39 0
-285 -240 -322 -315 -14 -27 -41 -64 -60 -80 -31 -28 -38 -44 -65 -149 -16
-65 -41 -136 -55 -158 -39 -62 -53 -122 -57 -253 -7 -202 4 -282 52 -378 22
-45 48 -113 57 -152 21 -94 43 -155 56 -155 15 0 55 -45 63 -71 13 -40 51 -86
157 -191 66 -65 127 -115 164 -135 33 -17 69 -45 81 -61 19 -26 37 -34 133
-56 71 -17 139 -42 191 -69 l81 -42 212 0 212 0 95 46 c57 29 132 56 191 69
87 20 101 27 123 56 14 19 49 45 78 58 70 34 279 240 313 310 14 28 41 65 60
81 29 26 38 44 55 115 27 114 44 163 72 208 38 60 47 119 47 304 0 191 -11
253 -56 321 -15 24 -38 87 -56 156 -25 98 -34 120 -61 146 -18 16 -50 59 -71
95 -48 80 -240 266 -308 298 -26 12 -57 35 -69 51 -26 35 -42 42 -169 72 -56
13 -112 33 -135 49 -23 15 -63 33 -90 40 -47 12 -335 22 -380 14z"/>
<path d="M15397 18710 c-26 -5 -78 -24 -115 -43 -38 -20 -108 -45 -158 -57
-126 -30 -122 -28 -157 -67 -18 -19 -54 -46 -82 -60 -70 -36 -273 -243 -315
-322 -18 -33 -40 -63 -50 -66 -24 -8 -36 -36 -65 -154 -14 -57 -37 -123 -50
-145 -42 -69 -47 -87 -57 -204 -7 -76 -7 -154 0 -237 9 -115 12 -129 46 -189
22 -39 48 -111 66 -178 26 -99 34 -117 64 -143 19 -16 44 -51 56 -78 30 -65
247 -279 315 -312 28 -13 64 -39 80 -57 26 -30 44 -38 140 -62 61 -15 134 -41
162 -57 73 -42 96 -47 241 -54 145 -7 295 5 338 27 16 8 47 24 69 36 22 12 92
35 155 51 98 26 118 35 138 61 13 17 47 42 75 57 73 36 286 251 316 319 13 27
36 59 52 69 33 23 41 41 64 145 9 41 38 117 63 169 l47 95 0 210 c0 223 -5
256 -51 326 -23 35 -74 201 -74 240 0 11 -20 40 -43 63 -24 23 -53 62 -64 87
-27 59 -234 264 -308 305 -30 17 -70 47 -88 68 -19 20 -44 37 -56 37 -43 0
-179 43 -258 82 l-83 41 -182 3 c-101 2 -205 -1 -231 -6z"/>
<path d="M10249 18700 c-25 -4 -64 -19 -87 -34 -48 -30 -133 -60 -222 -77 -55
-10 -71 -18 -100 -50 -19 -21 -58 -50 -85 -63 -31 -16 -91 -66 -157 -133 -114
-115 -158 -168 -158 -191 0 -9 -19 -33 -42 -55 -38 -36 -44 -50 -70 -149 -15
-60 -44 -140 -64 -179 -51 -98 -66 -255 -45 -457 8 -78 16 -103 49 -165 26
-46 48 -107 62 -172 21 -91 27 -103 66 -141 23 -23 45 -52 49 -65 11 -34 34
-61 152 -181 61 -61 125 -116 152 -130 25 -13 62 -40 82 -61 32 -34 49 -42
135 -63 117 -29 147 -40 194 -71 19 -12 58 -27 85 -33 65 -13 246 -18 359 -9
76 6 99 12 167 48 68 35 216 81 262 81 8 0 30 17 48 39 19 21 57 50 85 64 67
34 263 229 309 308 19 33 48 72 64 85 16 14 33 39 36 57 19 93 59 213 81 249
38 60 52 144 52 313 0 170 -14 253 -53 314 -14 23 -41 96 -59 162 -28 105 -37
125 -67 153 -19 17 -45 52 -57 77 -30 62 -246 276 -314 311 -29 15 -64 41 -78
58 -22 27 -40 35 -130 56 -98 24 -187 58 -201 78 -4 4 -33 14 -65 22 -64 15
-354 18 -435 4z"/>
<path d="M4976 13122 c-3 -5 1 -9 9 -9 8 0 12 4 9 9 -3 4 -7 8 -9 8 -2 0 -6
-4 -9 -8z"/>
<path d="M5012 12795 c-14 -16 -22 -39 -22 -60 0 -24 -5 -35 -15 -35 -23 0
-18 -28 6 -35 11 -4 23 -4 26 -1 4 3 1 6 -5 6 -18 0 -14 21 6 39 15 13 40 111
29 111 -2 0 -13 -11 -25 -25z"/>
<path d="M4910 12631 c0 -5 -8 -12 -17 -14 -10 -3 -3 -5 15 -6 22 -1 32 4 32
14 0 8 -7 15 -15 15 -8 0 -15 -4 -15 -9z"/>
<path d="M4957 12613 c-13 -12 -7 -23 11 -23 10 0 19 7 19 15 0 15 -18 20 -30
8z"/>
<path d="M4820 12595 c0 -8 9 -15 20 -15 11 0 20 7 20 15 0 8 -9 15 -20 15
-11 0 -20 -7 -20 -15z"/>
<path d="M4950 12552 c0 -4 -10 -8 -22 -9 -12 -1 -28 -9 -37 -18 -14 -13 -13
-15 12 -15 15 0 27 -6 27 -12 0 -9 4 -8 10 2 7 11 10 5 11 -25 0 -22 3 -34 6
-27 2 6 11 12 19 12 19 0 18 17 -3 30 -13 8 -14 13 -5 16 18 8 15 54 -3 54 -8
0 -15 -4 -15 -8z"/>
<path d="M4780 12526 c0 -6 9 -18 20 -26 11 -8 20 -20 20 -27 0 -7 7 -13 15
-13 8 0 15 7 15 15 0 8 -4 15 -10 15 -5 0 -10 10 -10 23 0 16 -6 22 -25 23
-14 1 -25 -3 -25 -10z"/>
<path d="M4908 12452 c-14 -2 -29 -10 -32 -19 -8 -19 -8 -18 27 -27 19 -5 29
-2 33 8 10 27 0 41 -28 38z"/>
<path d="M4760 12410 c0 -5 5 -10 10 -10 6 0 10 -6 10 -13 0 -14 31 -47 43
-47 17 0 6 60 -12 70 -25 13 -51 13 -51 0z"/>
<path d="M4930 12385 c0 -8 7 -15 15 -15 8 0 15 7 15 15 0 8 -7 15 -15 15 -8
0 -15 -7 -15 -15z"/>
<path d="M4910 12346 c0 -7 -9 -16 -20 -19 -12 -3 -20 -14 -20 -26 0 -16 -6
-21 -25 -21 -18 0 -25 -5 -25 -20 0 -11 -4 -20 -10 -20 -5 0 -10 7 -10 16 0
10 -6 14 -15 10 -10 -4 -15 1 -15 14 0 11 -4 20 -10 20 -15 0 -12 -40 5 -56
24 -25 18 -42 -17 -47 -29 -3 -27 -4 10 -5 23 -1 42 -6 42 -12 0 -5 14 -10 30
-10 25 0 30 4 30 25 0 18 5 25 20 25 11 0 20 5 20 10 0 6 9 10 20 10 18 0 20
7 20 60 0 47 -3 60 -15 60 -8 0 -15 -6 -15 -14z"/>
<path d="M4770 12075 c0 -24 5 -35 15 -35 10 0 15 11 15 35 0 24 -5 35 -15 35
-10 0 -15 -11 -15 -35z"/>
</g>
</svg>
